<svg width="820" height="855" viewBox="0 0 820 855" fill="none" xmlns="http://www.w3.org/2000/svg">
<g filter="url(#filter0_d_242_2)">
<path fill-rule="evenodd" clip-rule="evenodd" d="M118.207 323.399C81.9673 323.399 63.8192 367.215 89.4454 392.839L223.729 527.113C242.483 545.865 267.917 556.399 294.437 556.399H365.13C391.65 556.399 417.084 566.934 435.838 585.686L596.877 746.713C615.631 765.465 641.065 776 667.585 776H1056.44C1128.97 776 1165.3 688.302 1114 637.015L1027.61 550.63C1008.2 531.22 1021.95 498.03 1049.4 498.03C1076.85 498.03 1090.6 464.841 1071.19 445.431L875.851 250.111C857.097 231.359 831.663 220.824 805.143 220.824H570.701C544.18 220.824 518.746 210.289 499.993 191.537L464.74 156.287C445.986 137.535 420.552 127 394.032 127H158.88C107.632 127 81.9673 188.963 118.207 225.199L146.968 253.959C172.595 279.583 154.447 323.399 118.207 323.399Z" fill="#2D314D"/>
</g>
<path fill-rule="evenodd" clip-rule="evenodd" d="M256.207 16.399C219.967 16.399 201.819 60.2148 227.445 85.8391L361.729 220.113C380.483 238.865 405.917 249.399 432.437 249.399H503.13C529.65 249.399 555.084 259.934 573.838 278.686L734.877 439.713C753.631 458.465 779.065 469 805.585 469H1194.44C1266.97 469 1303.3 381.302 1252 330.015L1165.61 243.63C1146.2 224.22 1159.95 191.03 1187.4 191.03C1214.85 191.03 1228.6 157.841 1209.19 138.431L1013.85 -56.8895C995.097 -75.6415 969.663 -86.1761 943.143 -86.1761H708.701C682.18 -86.1761 656.746 -96.7108 637.993 -115.463L602.74 -150.713C583.986 -169.465 558.552 -180 532.032 -180H296.88C245.632 -180 219.967 -118.037 256.207 -81.8005L284.968 -53.0412C310.595 -27.4169 292.447 16.399 256.207 16.399Z" fill="url(#paint0_linear_242_2)"/>
<defs>
<filter id="filter0_d_242_2" x="0.448975" y="52" width="1214.57" height="803" filterUnits="userSpaceOnUse" color-interpolation-filters="sRGB">
<feFlood flood-opacity="0" result="BackgroundImageFix"/>
<feColorMatrix in="SourceAlpha" type="matrix" values="0 0 0 0 0 0 0 0 0 0 0 0 0 0 0 0 0 0 127 0" result="hardAlpha"/>
<feOffset dy="2"/>
<feGaussianBlur stdDeviation="38.5"/>
<feColorMatrix type="matrix" values="0 0 0 0 0 0 0 0 0 0 0 0 0 0 0 0 0 0 0.0240111 0"/>
<feBlend mode="normal" in2="BackgroundImageFix" result="effect1_dropShadow_242_2"/>
<feBlend mode="normal" in="SourceGraphic" in2="effect1_dropShadow_242_2" result="shape"/>
</filter>
<linearGradient id="paint0_linear_242_2" x1="-455.913" y1="143.138" x2="76.8341" y2="1155.28" gradientUnits="userSpaceOnUse">
<stop stop-color="#33D35E"/>
<stop offset="1" stop-color="#2AB6D9"/>
</linearGradient>
</defs>
</svg>
