<svg width="21" height="18" viewBox="0 0 21 18" fill="none" xmlns="http://www.w3.org/2000/svg">
<path d="M20.6667 2.79746C19.9309 3.12412 19.1401 3.34412 18.3101 3.44329C19.1576 2.93579 19.8084 2.13162 20.1142 1.17329C19.3217 1.64329 18.4434 1.98496 17.5084 2.16912C16.7609 1.37162 15.6934 0.873291 14.5134 0.873291C11.8642 0.873291 9.91758 3.34496 10.5159 5.91079C7.10675 5.73996 4.08341 4.10662 2.05925 1.62412C0.984248 3.46829 1.50175 5.88079 3.32841 7.10246C2.65675 7.08079 2.02341 6.89662 1.47091 6.58912C1.42591 8.48996 2.78841 10.2683 4.76175 10.6641C4.18425 10.8208 3.55175 10.8575 2.90841 10.7341C3.43008 12.3641 4.94508 13.55 6.74175 13.5833C5.01675 14.9358 2.84341 15.54 0.666748 15.2833C2.48258 16.4475 4.64008 17.1266 6.95675 17.1266C14.5751 17.1266 18.8792 10.6925 18.6192 4.92162C19.4209 4.34246 20.1167 3.61996 20.6667 2.79746Z" fill="#30C88F"/>
</svg>
