<svg width="21" height="20" viewBox="0 0 21 20" fill="none" xmlns="http://www.w3.org/2000/svg">
<path fill-rule="evenodd" clip-rule="evenodd" d="M10.3333 0C4.81075 0 0.333252 4.4775 0.333252 10C0.333252 15.5225 4.81075 20 10.3333 20C15.8558 20 20.3333 15.5225 20.3333 10C20.3333 4.4775 15.8558 0 10.3333 0ZM14.0341 14.0767C12.2824 14.1967 8.38075 14.1967 6.63159 14.0767C4.73492 13.9467 4.51409 13.0183 4.49992 10C4.51409 6.97583 4.73742 6.05333 6.63159 5.92333C8.38075 5.80333 12.2833 5.80333 14.0341 5.92333C15.9316 6.05333 16.1516 6.98167 16.1666 10C16.1516 13.0242 15.9291 13.9467 14.0341 14.0767ZM12.7641 9.99667L8.66658 8.04833V11.9517L12.7641 9.99667Z" fill="white"/>
</svg>
